<svg xmlns="http://www.w3.org/2000/svg" xmlns:xlink="http://www.w3.org/1999/xlink" viewBox="0,0,256,256" width="26px" height="26px" fill-rule="nonzero"><g fill="#04ff1e" fill-rule="nonzero" stroke="none" stroke-width="1" stroke-linecap="butt" stroke-linejoin="miter" stroke-miterlimit="10" stroke-dasharray="" stroke-dashoffset="0" font-family="none" font-weight="none" font-size="none" text-anchor="none" style="mix-blend-mode: normal"><g transform="scale(9.84615,9.84615)"><path d="M13,1c-6.61719,0 -12,5.38281 -12,12c0,6.61719 5.38281,12 12,12c6.61719,0 12,-5.38281 12,-12c0,-6.61719 -5.38281,-12 -12,-12zM13,3c5.53516,0 10,4.46484 10,10c0,5.53516 -4.46484,10 -10,10c-5.53516,0 -10,-4.46484 -10,-10c0,-5.53516 4.46484,-10 10,-10zM17.1875,7.0625c-0.14844,0.02344 -0.27344,0.10156 -0.375,0.25l-4.90625,7.28125l-2.3125,-2.28125c-0.19922,-0.30078 -0.58203,-0.32422 -0.78125,-0.125l-0.90625,0.90625c-0.19922,0.30078 -0.19922,0.70703 0,0.90625l3.5,3.5c0.19922,0.10156 0.48047,0.3125 0.78125,0.3125c0.19922,0 0.51953,-0.10547 0.71875,-0.40625l6,-8.8125c0.19922,-0.30078 0.08594,-0.58203 -0.3125,-0.78125l-1,-0.71875c-0.10156,-0.05078 -0.25781,-0.05469 -0.40625,-0.03125z"></path></g></g></svg>